<?xml version="1.0" encoding="utf-8"?>
<!-- Generator: Adobe Illustrator 21.0.0, SVG Export Plug-In . SVG Version: 6.00 Build 0)  -->
<svg version="1.1" id="Layer_1" xmlns="http://www.w3.org/2000/svg" xmlns:xlink="http://www.w3.org/1999/xlink" x="0px" y="0px"
	 viewBox="0 0 829.8 352.5" style="enable-background:new 0 0 829.8 352.5;" xml:space="preserve">
<style type="text/css">
	.st0{fill:#6E2263;}
	.st1{fill:#F8C86E;}
</style>
<g>
	<g>
		<g>
			<path class="st0" d="M147.8,136.6h-30.5l-5.7,30.6h34.4l-1.7,8.8H99.5l15.9-83.9h42.8l-1.7,8.8h-32.4l-5.1,26.9h30.5L147.8,136.6
				z"/>
			<path class="st0" d="M157.6,176.1l8.1-42.7c1.4-6.7,2.1-12.6,2.9-17.6h9.2l-1.5,11.8h0.2c5.4-8.5,13.4-13.2,22.3-13.2
				c7.2,0,15.3,4.1,15.3,16.8c0,2.6-0.5,6.5-1.1,9.7l-6.7,35.1H196l6.6-34.7c0.5-2.4,0.9-5.2,0.9-7.7c0-6.1-2.4-10.6-9.5-10.6
				c-7.3,0-17.8,8.8-20.5,23.8l-5.5,29.3H157.6z"/>
			<path class="st0" d="M267.6,172.6c-4.5,2.6-11.8,4.7-19.9,4.7c-15.9,0-22.9-10.8-22.9-24.2c0-18.2,13.4-38.7,32.9-38.7
				c11.5,0,17.7,6.8,17.7,15.4c0,15.8-17.8,20-40.1,19.7c-0.5,2.6-0.1,8.2,1.2,11.5c2.4,5.4,7.2,8.1,13.4,8.1
				c7.1,0,12.5-2.2,16.2-4.2L267.6,172.6z M256.1,122.5c-9.8,0-17.2,9.6-19.7,19c16.2,0.1,28.9-2,28.9-11.3
				C265.3,125.3,261.6,122.5,256.1,122.5z"/>
			<path class="st0" d="M280.5,176.1l7.3-38.8c1.5-7.8,2.5-15.8,3.1-21.4h9.1c-0.5,4.2-1,8.5-1.6,13.1h0.4
				c3.9-8.2,10.3-14.4,18.4-14.4c0.9,0,2.1,0.1,2.9,0.2l-2,10.2c-0.6-0.1-1.6-0.2-2.7-0.2c-9,0-16.9,10.8-19.5,24.9l-5,26.5H280.5z"
				/>
			<path class="st0" d="M319.8,189.8c3.6,2.2,9.6,4,15.9,4c10.1,0,18.1-5.2,21.7-21.5l2-9H359c-5.2,8.6-12.6,12.8-20.9,12.8
				c-12.1,0-18.3-10.2-18.3-20.9c-0.1-20.4,14.9-40.7,38.2-40.7c7,0,14.6,2,19.3,4.2l-9.2,49.8c-2.5,12.7-5.9,21.5-12.2,26.9
				c-6,5.2-14.1,6.7-21,6.7c-7.3,0-14.2-1.7-18.1-4.2L319.8,189.8z M365.9,124.8c-1.9-0.9-5.6-2-10-2c-15.1,0-25.4,15.7-25.5,30.6
				c0,6.6,2.4,14.4,11.6,14.4c8.8,0,17.8-11.2,20-23L365.9,124.8z"/>
			<path class="st0" d="M384.4,176.1l11.6-60.3h10.3l-11.6,60.3H384.4z M397.8,99c0-4,3.1-7,6.8-7c3.7,0,6.1,2.7,6.1,6.5
				c-0.1,4.1-3,7-7,7C400.2,105.5,397.8,102.8,397.8,99z"/>
			<path class="st0" d="M456.3,172.6c-4.5,2.6-11.8,4.7-19.9,4.7c-15.9,0-22.9-10.8-22.9-24.2c0-18.2,13.4-38.7,32.9-38.7
				c11.5,0,17.7,6.8,17.7,15.4c0,15.8-17.8,20-40.1,19.7c-0.5,2.6-0.1,8.2,1.2,11.5c2.4,5.4,7.2,8.1,13.4,8.1
				c7.1,0,12.4-2.2,16.2-4.2L456.3,172.6z M444.9,122.5c-9.8,0-17.2,9.6-19.7,19c16.2,0.1,28.9-2,28.9-11.3
				C454.1,125.3,450.4,122.5,444.9,122.5z"/>
			<path class="st0" d="M491.6,163.1c4.5,3.1,10.8,5.4,17.8,5.4c9.5,0,18.2-5.6,18.2-15.8c0-6.2-3.6-10.8-12.3-15.7
				c-10.7-5.7-16.7-12.5-16.7-21.5c0-14.9,12.9-24.7,28.4-24.7c8.1,0,14.2,2.5,17.2,4.5l-3.7,8.3c-2.6-1.5-7.8-4-14.6-3.9
				c-10.3,0-16.6,6.8-16.6,13.7c0,6.8,4.2,10.7,12.9,15.6c10.3,5.5,16.1,12.1,16.1,22.4c0,14.6-11.5,25.9-30.3,25.9
				c-8.5,0-16.7-2.7-20.2-5.7L491.6,163.1z"/>
			<path class="st0" d="M591,172.6c-4.5,2.6-11.8,4.7-19.9,4.7c-15.9,0-22.9-10.8-22.9-24.2c0-18.2,13.4-38.7,32.9-38.7
				c11.5,0,17.7,6.8,17.7,15.4c0,15.8-17.8,20-40.1,19.7c-0.5,2.6-0.1,8.2,1.2,11.5c2.4,5.4,7.2,8.1,13.4,8.1
				c7.1,0,12.4-2.2,16.2-4.2L591,172.6z M579.5,122.5c-9.8,0-17.2,9.6-19.7,19c16.2,0.1,28.9-2,28.9-11.3
				C588.7,125.3,585,122.5,579.5,122.5z"/>
			<path class="st0" d="M603.1,176.1l7.3-38.8c1.5-7.8,2.5-15.8,3.1-21.4h9.1c-0.5,4.2-1,8.5-1.6,13.1h0.4
				c3.9-8.2,10.3-14.4,18.4-14.4c0.9,0,2.1,0.1,2.9,0.2l-2,10.2c-0.6-0.1-1.6-0.2-2.7-0.2c-9,0-16.9,10.8-19.5,24.9l-5,26.5H603.1z"
				/>
			<path class="st0" d="M661.1,115.8l5.2,34.4c0.9,6.8,1.6,11.5,1.9,14.8h0.4c1.2-3.2,2.9-7.2,6.3-14.1l18.4-35.1h11.3l-33.5,60.3
				H661l-10.5-60.3H661.1z"/>
			<path class="st0" d="M703.1,176.1l11.6-60.3H725l-11.6,60.3H703.1z M716.5,99c0-4,3.1-7,6.8-7c3.7,0,6.1,2.7,6.1,6.5
				c-0.1,4.1-3,7-7,7C718.9,105.5,716.5,102.8,716.5,99z"/>
			<path class="st0" d="M770.2,173.7c-3.1,1.5-9.3,3.6-17.4,3.6c-15.6,0-23.2-10.5-23.2-23.3c0-20.5,15.2-39.5,36.9-39.5
				c5.6,0,10.7,1.6,12.6,2.6l-3,8.2c-2.4-1.1-5.7-2.2-10.2-2.2c-15.7,0-25.5,15.4-25.5,29.6c0,9.7,5.1,16.1,14.9,16.1
				c6.1,0,10.8-1.9,13.9-3.4L770.2,173.7z"/>
			<path class="st0" d="M822.1,172.6c-4.5,2.6-11.8,4.7-19.9,4.7c-15.9,0-22.9-10.8-22.9-24.2c0-18.2,13.4-38.7,32.9-38.7
				c11.5,0,17.7,6.8,17.7,15.4c0,15.8-17.8,20-40.1,19.7c-0.5,2.6-0.1,8.2,1.2,11.5c2.4,5.4,7.2,8.1,13.4,8.1
				c7.1,0,12.4-2.2,16.2-4.2L822.1,172.6z M810.6,122.5c-9.8,0-17.2,9.6-19.7,19c16.2,0.1,28.9-2,28.9-11.3
				C819.8,125.3,816.1,122.5,810.6,122.5z"/>
		</g>
	</g>
	<g>
		<g>
			<path class="st0" d="M384.9,262.6l10.9-57.4h7.7l13.2,32.5c2.5,6.5,3.8,11.1,5,16l0.2-0.1c0.3-5.2,0.9-10,2.4-18l5.8-30.5h6.7
				l-11,57.4h-7l-13-32.4c-2.8-7.1-4.1-11.2-5.4-16.5l-0.3,0.1c-0.6,5.4-1.5,11.1-3,18.9l-5.7,30H384.9z"/>
			<path class="st0" d="M477.9,237.6c0,12.7-9,25.9-22.8,25.9c-10.3,0-16.1-7.7-16.1-16.9c0-13.5,9.4-26.1,22.8-26.1
				C473,220.4,477.9,228.9,477.9,237.6z M446.4,246.3c0,6.7,3.7,11.6,9.7,11.6c8.3,0,14.6-10.7,14.6-20.3c0-4.8-2.2-11.5-9.6-11.5
				C452.2,226.1,446.3,236.9,446.4,246.3z"/>
			<path class="st0" d="M522.6,237.6c0,12.7-9,25.9-22.8,25.9c-10.3,0-16.1-7.7-16.1-16.9c0-13.5,9.4-26.1,22.8-26.1
				C517.7,220.4,522.6,228.9,522.6,237.6z M491,246.3c0,6.7,3.7,11.6,9.7,11.6c8.3,0,14.6-10.7,14.6-20.3c0-4.8-2.2-11.5-9.6-11.5
				C496.9,226.1,491,236.9,491,246.3z"/>
			<path class="st0" d="M531.3,262.6l5-26.6c1-5.4,1.7-10.8,2.1-14.6h6.2c-0.3,2.9-0.7,5.8-1.1,8.9h0.3c2.6-5.6,7.1-9.9,12.6-9.9
				c0.6,0,1.4,0.1,2,0.2l-1.4,7c-0.4-0.1-1.1-0.2-1.9-0.2c-6.1,0-11.6,7.4-13.4,17l-3.4,18.1H531.3z"/>
			<path class="st0" d="M604.1,202.1l-9,47.4c-0.9,4.3-1.5,9-1.8,13h-6.5l1.1-8.2h-0.2c-3.7,5.9-8.9,9.1-14.8,9.1
				c-8,0-12.3-6.6-12.3-15c0-14.6,10.9-28.1,25.5-28.1c2.6,0,5.5,0.6,7.3,1.4l3.7-19.7H604.1z M592.3,227.9
				c-1.4-0.9-3.8-1.7-6.8-1.7c-9.9,0-17.5,10.5-17.5,21.5c0,4.9,1.7,10.1,7.7,10.1c5.4,0,12-6.2,13.8-15.5L592.3,227.9z"/>
			<path class="st0" d="M632,262.6l-2.8-57.4h7.2l1.2,34.4c0.3,7.4,0.1,11.3,0,15h0.2c1.4-3.7,2.7-7.5,6-14.6l15.8-34.8h7.6l1.2,33
				c0.3,7.4,0.3,12.4,0.2,16.2h0.2c1.7-4.9,3.4-9.5,5.6-14.7l15.4-34.5h7.4l-26.6,57.4H663l-1.5-32.6c-0.3-6.7-0.2-10,0.2-16.5h-0.3
				c-1.9,5.4-3.4,9.9-5.8,15.1l-16,34H632z"/>
			<path class="st0" d="M723.5,260.2c-3.1,1.8-8.1,3.2-13.6,3.2c-10.9,0-15.7-7.4-15.7-16.5c0-12.4,9.2-26.5,22.5-26.5
				c7.8,0,12.1,4.7,12.1,10.6c0,10.8-12.2,13.7-27.4,13.4c-0.3,1.8-0.1,5.6,0.9,7.8c1.6,3.7,4.9,5.5,9.2,5.5c4.9,0,8.5-1.5,11.1-2.9
				L723.5,260.2z M715.7,226c-6.7,0-11.7,6.6-13.4,13c11.1,0.1,19.7-1.4,19.7-7.7C722,227.9,719.4,226,715.7,226z"/>
			<path class="st0" d="M733.9,255.4c2,1.2,5.5,2.6,8.9,2.6c4.8,0,7.8-3.1,7.8-6.7c0-3.2-1.4-5.2-5.7-7.6c-4.8-2.6-7.4-6.3-7.4-10.5
				c0-7.2,6.2-12.8,14.9-12.8c3.7,0,7.1,1,8.6,2l-2,5.4c-1.4-0.9-4.1-1.9-7.2-1.9c-4.3,0-7.3,2.6-7.3,6.2c0,3,2,4.9,5.6,6.9
				c4.6,2.6,7.7,6.2,7.7,10.8c0,8.7-7.1,13.5-15.7,13.5c-4.4,0-8.3-1.4-10.2-2.8L733.9,255.4z"/>
			<path class="st0" d="M785.4,210.3l-2.1,11.1h9.9l-1.1,5.5h-9.9l-3.8,20c-0.4,2.3-0.8,4.4-0.8,6.6c0,2.5,1.2,3.9,3.9,3.9
				c1.2,0,2.4-0.1,3.3-0.3l-0.3,5.5c-1.3,0.5-3.4,0.8-5.4,0.8c-6.3,0-8.7-3.8-8.7-8c0-2.4,0.3-4.8,0.9-7.7l4.1-20.9h-6l1.1-5.5h5.9
				l1.8-9.3L785.4,210.3z"/>
		</g>
	</g>
	<g>
		<g>
			<polygon class="st1" points="15.4,176.2 12.1,83.8 8.7,166.6 3.8,0 0,176.2 0,176.2 0,176.2 0,176.3 0,176.3 3.8,352.5 
				8.7,185.9 12.1,268.7 15.4,176.3 15.4,176.3 15.4,176.2 15.4,176.2 			"/>
			<polygon class="st1" points="22.8,176.2 19.9,94 17.1,176.2 17.1,176.2 17.1,176.2 17.1,176.3 17.1,176.3 19.9,258.5 22.8,176.3 
				22.8,176.3 22.8,176.2 22.8,176.2 			"/>
			<polygon class="st1" points="29.8,176.2 27.5,104.4 25.4,176.2 25.4,176.2 25.4,176.2 25.4,176.3 25.4,176.3 27.5,248.1 
				29.8,176.3 29.8,176.3 29.8,176.2 29.8,176.2 			"/>
			<polygon class="st1" points="37,176.2 35.2,117.2 33.5,176.2 33.5,176.2 33.5,176.2 33.5,176.3 33.5,176.3 35.2,235.3 37,176.3 
				37,176.3 37,176.2 37,176.2 			"/>
			<polygon class="st1" points="43.9,176.2 43.1,137 42.2,176.2 42.2,176.2 42.2,176.2 42.2,176.3 42.2,176.3 43.1,215.5 
				43.9,176.3 43.9,176.3 43.9,176.2 43.9,176.2 			"/>
			<polygon class="st1" points="51.5,176.2 51.5,176.2 51.5,176.2 51,161.9 50.5,176.2 50.5,176.2 50.5,176.2 50.5,176.3 
				50.5,176.3 51,190.6 51.5,176.3 51.5,176.3 			"/>
		</g>
	</g>
</g>
</svg>
